<?xml version="1.0" encoding="utf-8" standalone="no"?>
<!DOCTYPE svg PUBLIC "-//W3C//DTD SVG 1.1//EN"
  "http://www.w3.org/Graphics/SVG/1.1/DTD/svg11.dtd">
<svg xmlns:xlink="http://www.w3.org/1999/xlink" width="540pt" height="432pt" viewBox="0 0 540 432" xmlns="http://www.w3.org/2000/svg" version="1.1">
 <metadata>
  <rdf:RDF xmlns:dc="http://purl.org/dc/elements/1.1/" xmlns:cc="http://creativecommons.org/ns#" xmlns:rdf="http://www.w3.org/1999/02/22-rdf-syntax-ns#">
   <cc:Work>
    <dc:type rdf:resource="http://purl.org/dc/dcmitype/StillImage"/>
    <dc:date>2026-09-07T17:22:46.299395</dc:date>
    <dc:format>image/svg+xml</dc:format>
    <dc:creator>
     <cc:Agent>
      <dc:title>Matplotlib v3.11.1, https://matplotlib.org/</dc:title>
     </cc:Agent>
    </dc:creator>
   </cc:Work>
  </rdf:RDF>
 </metadata>
 <defs>
  <style type="text/css">*{stroke-linejoin: round; stroke-linecap: butt}</style>
 </defs>
 <g id="figure_1">
  <g id="patch_1">
   <path d="M 0 432 
L 540 432 
L 540 0 
L 0 0 
z
" style="fill: #ffffff"/>
  </g>
  <g id="axes_1">
   <g id="patch_2">
    <path d="M 14.04 101.52 
L 164.16 101.52 
Q 170.1 101.52 170.1 96.768 
L 170.1 37.152 
Q 170.1 32.4 164.16 32.4 
L 14.04 32.4 
Q 8.1 32.4 8.1 37.152 
L 8.1 96.768 
Q 8.1 101.52 14.04 101.52 
z
" clip-path="url(#p50240bdaa3)" style="fill: #e2eed9; stroke: #7f8c86; stroke-width: 0.8; stroke-linejoin: miter"/>
   </g>
   <g id="patch_3">
    <path d="M 197.64 101.52 
L 342.36 101.52 
Q 348.3 101.52 348.3 96.768 
L 348.3 37.152 
Q 348.3 32.4 342.36 32.4 
L 197.64 32.4 
Q 191.7 32.4 191.7 37.152 
L 191.7 96.768 
Q 191.7 101.52 197.64 101.52 
z
" clip-path="url(#p50240bdaa3)" style="fill: #e2eed9; stroke: #7f8c86; stroke-width: 0.8; stroke-linejoin: miter"/>
   </g>
   <g id="patch_4">
    <path d="M 375.84 101.52 
L 525.96 101.52 
Q 531.9 101.52 531.9 96.768 
L 531.9 37.152 
Q 531.9 32.4 525.96 32.4 
L 375.84 32.4 
Q 369.9 32.4 369.9 37.152 
L 369.9 96.768 
Q 369.9 101.52 375.84 101.52 
z
" clip-path="url(#p50240bdaa3)" style="fill: #e2eed9; stroke: #7f8c86; stroke-width: 0.8; stroke-linejoin: miter"/>
   </g>
   <g id="patch_5">
    <path d="M 172.097974 69.12 
Q 179.548318 69.12 185.880627 69.12 
" clip-path="url(#p50240bdaa3)" style="fill: none; stroke: #21312c; stroke-linecap: round"/>
    <path d="M 181.880627 67.12 
L 185.880627 69.12 
L 181.880627 71.12 
z
" clip-path="url(#p50240bdaa3)" style="fill: #21312c; stroke: #21312c; stroke-linecap: round"/>
   </g>
   <g id="patch_6">
    <path d="M 350.297974 69.12 
Q 357.748318 69.12 364.080627 69.12 
" clip-path="url(#p50240bdaa3)" style="fill: none; stroke: #21312c; stroke-linecap: round"/>
    <path d="M 360.080627 67.12 
L 364.080627 69.12 
L 360.080627 71.12 
z
" clip-path="url(#p50240bdaa3)" style="fill: #21312c; stroke: #21312c; stroke-linecap: round"/>
   </g>
   <g id="patch_7">
    <path d="M 24.84 218.16 
L 239.76 218.16 
Q 245.7 218.16 245.7 213.408 
L 245.7 166.752 
Q 245.7 162 239.76 162 
L 24.84 162 
Q 18.9 162 18.9 166.752 
L 18.9 213.408 
Q 18.9 218.16 24.84 218.16 
z
" clip-path="url(#p50240bdaa3)" style="fill: #e4edf4; stroke: #7f8c86; stroke-width: 0.8; stroke-linejoin: miter"/>
   </g>
   <g id="patch_8">
    <path d="M 300.24 218.16 
L 515.16 218.16 
Q 521.1 218.16 521.1 213.408 
L 521.1 166.752 
Q 521.1 162 515.16 162 
L 300.24 162 
Q 294.3 162 294.3 166.752 
L 294.3 213.408 
Q 294.3 218.16 300.24 218.16 
z
" clip-path="url(#p50240bdaa3)" style="fill: #fae6d4; stroke: #7f8c86; stroke-width: 0.8; stroke-linejoin: miter"/>
   </g>
   <g id="patch_9">
    <path d="M 155.036426 152.450859 
Q 151.199566 155.520347 148.235744 157.891405 
" clip-path="url(#p50240bdaa3)" style="fill: none; stroke: #21312c; stroke-linecap: round"/>
    <path d="M 152.608609 156.954362 
L 148.235744 157.891405 
L 150.109829 153.830887 
z
" clip-path="url(#p50240bdaa3)" style="fill: #21312c; stroke: #21312c; stroke-linecap: round"/>
   </g>
   <g id="patch_10">
    <path d="M 395.96792 152.142891 
Q 402.301334 155.520711 407.648247 158.372399 
" clip-path="url(#p50240bdaa3)" style="fill: none; stroke: #21312c; stroke-linecap: round"/>
    <path d="M 405.060012 154.72534 
L 407.648247 158.372399 
L 403.177659 158.254752 
z
" clip-path="url(#p50240bdaa3)" style="fill: #21312c; stroke: #21312c; stroke-linecap: round"/>
   </g>
   <g id="patch_11">
    <path d="M 14.04 354.24 
L 115.56 354.24 
Q 121.5 354.24 121.5 349.488 
L 121.5 302.832 
Q 121.5 298.08 115.56 298.08 
L 14.04 298.08 
Q 8.1 298.08 8.1 302.832 
L 8.1 349.488 
Q 8.1 354.24 14.04 354.24 
z
" clip-path="url(#p50240bdaa3)" style="fill: #e2eed9; stroke: #7f8c86; stroke-width: 0.8; stroke-linejoin: miter"/>
   </g>
   <g id="patch_12">
    <path d="M 149.04 354.24 
L 250.56 354.24 
Q 256.5 354.24 256.5 349.488 
L 256.5 302.832 
Q 256.5 298.08 250.56 298.08 
L 149.04 298.08 
Q 143.1 298.08 143.1 302.832 
L 143.1 349.488 
Q 143.1 354.24 149.04 354.24 
z
" clip-path="url(#p50240bdaa3)" style="fill: #e2eed9; stroke: #7f8c86; stroke-width: 0.8; stroke-linejoin: miter"/>
   </g>
   <g id="patch_13">
    <path d="M 284.04 354.24 
L 385.56 354.24 
Q 391.5 354.24 391.5 349.488 
L 391.5 302.832 
Q 391.5 298.08 385.56 298.08 
L 284.04 298.08 
Q 278.1 298.08 278.1 302.832 
L 278.1 349.488 
Q 278.1 354.24 284.04 354.24 
z
" clip-path="url(#p50240bdaa3)" style="fill: #e2eed9; stroke: #7f8c86; stroke-width: 0.8; stroke-linejoin: miter"/>
   </g>
   <g id="patch_14">
    <path d="M 419.04 354.24 
L 525.96 354.24 
Q 531.9 354.24 531.9 349.488 
L 531.9 302.832 
Q 531.9 298.08 525.96 298.08 
L 419.04 298.08 
Q 413.1 298.08 413.1 302.832 
L 413.1 349.488 
Q 413.1 354.24 419.04 354.24 
z
" clip-path="url(#p50240bdaa3)" style="fill: #e2eed9; stroke: #7f8c86; stroke-width: 0.8; stroke-linejoin: miter"/>
   </g>
   <g id="patch_15">
    <path d="M 123.497974 324 
Q 130.948318 324 137.280627 324 
" clip-path="url(#p50240bdaa3)" style="fill: none; stroke: #21312c; stroke-linecap: round"/>
    <path d="M 133.280627 322 
L 137.280627 324 
L 133.280627 326 
z
" clip-path="url(#p50240bdaa3)" style="fill: #21312c; stroke: #21312c; stroke-linecap: round"/>
   </g>
   <g id="patch_16">
    <path d="M 258.497974 324 
Q 265.948318 324 272.280627 324 
" clip-path="url(#p50240bdaa3)" style="fill: none; stroke: #21312c; stroke-linecap: round"/>
    <path d="M 268.280627 322 
L 272.280627 324 
L 268.280627 326 
z
" clip-path="url(#p50240bdaa3)" style="fill: #21312c; stroke: #21312c; stroke-linecap: round"/>
   </g>
   <g id="patch_17">
    <path d="M 294.84 410.4 
L 515.16 410.4 
Q 521.1 410.4 521.1 405.648 
L 521.1 369.792 
Q 521.1 365.04 515.16 365.04 
L 294.84 365.04 
Q 288.9 365.04 288.9 369.792 
L 288.9 405.648 
Q 288.9 410.4 294.84 410.4 
z
" clip-path="url(#p50240bdaa3)" style="fill: #e4edf4; stroke: #7f8c86; stroke-width: 0.8; stroke-linejoin: miter"/>
   </g>
   <g id="patch_18">
    <path d="M 334.8 356.242219 
Q 334.8 359.426363 334.8 361.492472 
" clip-path="url(#p50240bdaa3)" style="fill: none; stroke: #21312c; stroke-linecap: round"/>
    <path d="M 336.8 357.492472 
L 334.8 361.492472 
L 332.8 357.492472 
z
" clip-path="url(#p50240bdaa3)" style="fill: #21312c; stroke: #21312c; stroke-linecap: round"/>
   </g>
   <g id="patch_19">
    <path d="M 475.2 362.605781 
Q 475.2 359.421637 475.2 357.355528 
" clip-path="url(#p50240bdaa3)" style="fill: none; stroke: #21312c; stroke-linecap: round"/>
    <path d="M 473.2 361.355528 
L 475.2 357.355528 
L 477.2 361.355528 
z
" clip-path="url(#p50240bdaa3)" style="fill: #21312c; stroke: #21312c; stroke-linecap: round"/>
   </g>
   <g id="line2d_1">
    <path d="M 10.8 251.856 
L 529.2 251.856 
" clip-path="url(#p50240bdaa3)" style="fill: none; stroke: #b9c2bd; stroke-width: 0.8; stroke-linecap: square"/>
   </g>
   <g id="text_1">
    <text style="font-weight: 700; font-size: 11px; font-family: 'DejaVu Sans'; text-anchor: start" x="10.8" y="16.998281" transform="rotate(-0 10.8 16.998281)">Aim 1a. Generate datasets with known discoveries</text>
   </g>
   <g id="text_2">
    <text style="font-weight: 700; font-size: 9px; font-family: 'DejaVu Sans'; text-anchor: middle; fill: #21312c" x="89.1" y="52.630594" transform="rotate(-0 89.1 52.630594)">Propose and review</text>
   </g>
   <g id="text_3">
    <text style="font-size: 8.3px; font-family: 'DejaVu Sans'; fill: #21312c" transform="translate(35.469031 71.413781)">LLM proposes hypotheses</text>
    <text style="font-size: 8.3px; font-family: 'DejaVu Sans'; fill: #21312c" transform="translate(25.707453 81.788781)">Search and compare literature</text>
    <text style="font-size: 8.3px; font-family: 'DejaVu Sans'; fill: #21312c" transform="translate(20.900586 92.163781)">Replace unsupported candidates</text>
   </g>
   <g id="text_4">
    <text style="font-weight: 700; font-size: 9px; font-family: 'DejaVu Sans'; text-anchor: middle; fill: #21312c" x="270" y="52.630594" transform="rotate(-0 270 52.630594)">Specify the full DGP</text>
   </g>
   <g id="text_5">
    <text style="font-size: 8.3px; font-family: 'DejaVu Sans'; fill: #21312c" transform="translate(208.126094 71.413781)">Clinical or DepMap covariates</text>
    <text style="font-size: 8.3px; font-family: 'DejaVu Sans'; fill: #21312c" transform="translate(215.522172 82.592844)">Six embedded discoveries</text>
    <text style="font-size: 8.3px; font-family: 'DejaVu Sans'; fill: #21312c" transform="translate(207.309062 92.163781)">Expected · neutral · surprising</text>
   </g>
   <g id="text_6">
    <text style="font-weight: 700; font-size: 9px; font-family: 'DejaVu Sans'; text-anchor: middle; fill: #21312c" x="450.9" y="52.630594" transform="rotate(-0 450.9 52.630594)">Select one discovery</text>
   </g>
   <g id="text_7">
    <text style="font-size: 8.3px; font-family: 'DejaVu Sans'; fill: #21312c" transform="translate(411.124195 71.794414)">Overall reversal, or</text>
    <text style="font-size: 8.3px; font-family: 'DejaVu Sans'; fill: #21312c" transform="translate(384.142063 81.788781)">reversal within a fixed subgroup</text>
    <text style="font-size: 8.3px; font-family: 'DejaVu Sans'; fill: #21312c" transform="translate(387.328484 92.163781)">with expected overall ordering</text>
   </g>
   <g id="text_8">
    <!-- $Y_k = \mu_k(X,A) + \sum_{j:o(j)=k}\beta_j\,g_j(X,A) + \epsilon_k$ -->
    <g style="fill: #21312c" transform="translate(167.34 122.4)">
     <text>
      <tspan x="0" y="-0.796875" style="font-style: oblique; font-size: 12px; font-family: 'DejaVu Sans'; fill: #21312c">Y</tspan>
      <tspan x="27.253125" y="-0.796875" style="font-style: oblique; font-size: 12px; font-family: 'DejaVu Sans'; fill: #21312c">μ</tspan>
      <tspan x="44.762109" y="-0.796875" style="font-style: oblique; font-size: 12px; font-family: 'DejaVu Sans'; fill: #21312c">X</tspan>
      <tspan x="59.135156" y="-0.796875" style="font-style: oblique; font-size: 12px; font-family: 'DejaVu Sans'; fill: #21312c">A</tspan>
      <tspan x="124.396289" y="-0.796875" style="font-style: oblique; font-size: 12px; font-family: 'DejaVu Sans'; fill: #21312c">β</tspan>
      <tspan x="136.664687" y="-0.796875" style="font-style: oblique; font-size: 12px; font-family: 'DejaVu Sans'; fill: #21312c">g</tspan>
      <tspan x="151.62543" y="-0.796875" style="font-style: oblique; font-size: 12px; font-family: 'DejaVu Sans'; fill: #21312c">X</tspan>
      <tspan x="165.998476" y="-0.796875" style="font-style: oblique; font-size: 12px; font-family: 'DejaVu Sans'; fill: #21312c">A</tspan>
      <tspan x="193.61957" y="-0.796875" style="font-style: oblique; font-size: 12px; font-family: 'DejaVu Sans'; fill: #21312c">ε</tspan>
      <tspan x="7.330078" y="1.003119" style="font-style: oblique; font-size: 8.4px; font-family: 'DejaVu Sans'; fill: #21312c">k</tspan>
      <tspan x="34.887891" y="1.003119" style="font-style: oblique; font-size: 8.4px; font-family: 'DejaVu Sans'; fill: #21312c">k</tspan>
      <tspan x="86.75625" y="11.10625" style="font-style: oblique; font-size: 8.4px; font-family: 'DejaVu Sans'; fill: #21312c">j</tspan>
      <tspan x="95.193164" y="11.10625" style="font-style: oblique; font-size: 8.4px; font-family: 'DejaVu Sans'; fill: #21312c">o</tspan>
      <tspan x="103.60957" y="11.10625" style="font-style: oblique; font-size: 8.4px; font-family: 'DejaVu Sans'; fill: #21312c">j</tspan>
      <tspan x="119.531836" y="11.10625" style="font-style: oblique; font-size: 8.4px; font-family: 'DejaVu Sans'; fill: #21312c">k</tspan>
      <tspan x="132.054492" y="1.003119" style="font-style: oblique; font-size: 8.4px; font-family: 'DejaVu Sans'; fill: #21312c">j</tspan>
      <tspan x="144.281875" y="1.003119" style="font-style: oblique; font-size: 8.4px; font-family: 'DejaVu Sans'; fill: #21312c">j</tspan>
      <tspan x="200.105898" y="1.003119" style="font-style: oblique; font-size: 8.4px; font-family: 'DejaVu Sans'; fill: #21312c">k</tspan>
      <tspan x="14.860547" y="-0.796875" style="font-size: 12px; font-family: 'DejaVu Sans'; fill: #21312c">=</tspan>
      <tspan x="40.080469" y="-0.796875" style="font-size: 12px; font-family: 'DejaVu Sans'; fill: #21312c">(</tspan>
      <tspan x="52.982813" y="-0.796875" style="font-size: 12px; font-family: 'DejaVu Sans'; fill: #21312c">,</tspan>
      <tspan x="67.344141" y="-0.796875" style="font-size: 12px; font-family: 'DejaVu Sans'; fill: #21312c">)</tspan>
      <tspan x="74.363672" y="-0.796875" style="font-size: 12px; font-family: 'DejaVu Sans'; fill: #21312c">+</tspan>
      <tspan x="146.943789" y="-0.796875" style="font-size: 12px; font-family: 'DejaVu Sans'; fill: #21312c">(</tspan>
      <tspan x="159.846133" y="-0.796875" style="font-size: 12px; font-family: 'DejaVu Sans'; fill: #21312c">,</tspan>
      <tspan x="174.207461" y="-0.796875" style="font-size: 12px; font-family: 'DejaVu Sans'; fill: #21312c">)</tspan>
      <tspan x="181.226992" y="-0.796875" style="font-size: 12px; font-family: 'DejaVu Sans'; fill: #21312c">+</tspan>
      <tspan x="99.75625" y="-0.796875" style="font-size: 12px; font-family: 'DejaVu Sans Display'; fill: #21312c">∑</tspan>
      <tspan x="90.726562" y="11.10625" style="font-size: 8.4px; font-family: 'DejaVu Sans'; fill: #21312c">:</tspan>
      <tspan x="100.332422" y="11.10625" style="font-size: 8.4px; font-family: 'DejaVu Sans'; fill: #21312c">(</tspan>
      <tspan x="105.943359" y="11.10625" style="font-size: 8.4px; font-family: 'DejaVu Sans'; fill: #21312c">)</tspan>
      <tspan x="110.857031" y="11.10625" style="font-size: 8.4px; font-family: 'DejaVu Sans'; fill: #21312c">=</tspan>
     </text>
    </g>
   </g>
   <g id="text_9">
    <text style="font-size: 8.3px; font-family: 'DejaVu Sans'; text-anchor: middle" x="270" y="143.856" transform="rotate(-0 270 143.856)">Each term specifies an exposure, comparison, outcome, and subgroup.</text>
   </g>
   <g id="text_10">
    <text style="font-weight: 700; font-size: 9px; font-family: 'DejaVu Sans'; text-anchor: middle; fill: #21312c" x="132.3" y="182.230594" transform="rotate(-0 132.3 182.230594)">Version A: focal expected</text>
   </g>
   <g id="text_11">
    <text style="font-size: 8.3px; font-family: 'DejaVu Sans'; fill: #21312c" transform="translate(57.872344 201.013781)">3 expected · 2 neutral · 1 surprising</text>
    <text style="font-size: 8.3px; font-family: 'DejaVu Sans'; fill: #21312c" transform="translate(55.322688 212.192844)">Focal direction: literature-concordant</text>
   </g>
   <g id="text_12">
    <text style="font-weight: 700; font-size: 9px; font-family: 'DejaVu Sans'; text-anchor: middle; fill: #21312c" x="407.7" y="182.230594" transform="rotate(-0 407.7 182.230594)">Version B: focal surprising</text>
   </g>
   <g id="text_13">
    <text style="font-size: 8.3px; font-family: 'DejaVu Sans'; fill: #21312c" transform="translate(333.272344 201.013781)">2 expected · 2 neutral · 2 surprising</text>
    <text style="font-size: 8.3px; font-family: 'DejaVu Sans'; fill: #21312c" transform="translate(332.224469 212.192844)">Focal direction: literature-discordant</text>
   </g>
   <g id="text_14">
    <text style="font-size: 8.2px; font-family: 'DejaVu Sans'; text-anchor: middle; fill: #21312c" x="270" y="228.528" transform="rotate(-0 270 228.528)">Five background discoveries, covariates, and residual draws remain fixed</text>
   </g>
   <g id="text_15">
    <text style="font-weight: 700; font-size: 8.7px; font-family: 'DejaVu Sans'; text-anchor: middle" x="270" y="240.624" transform="rotate(-0 270 240.624)">Verify full-DGP contrasts and calibrate paired statistical difficulty</text>
   </g>
   <g id="text_16">
    <text style="font-weight: 700; font-size: 11px; font-family: 'DejaVu Sans'; text-anchor: start" x="10.8" y="268.422281" transform="rotate(-0 10.8 268.422281)">Aim 1b. Deploy fresh agents and evaluate the research process</text>
   </g>
   <g id="text_17">
    <text style="font-size: 8.4px; font-family: 'DejaVu Sans'; text-anchor: middle; fill: #21312c" x="270" y="282.528" transform="rotate(-0 270 282.528)">Fresh session · One dataset version · Identical paired budgets</text>
   </g>
   <g id="text_18">
    <text style="font-weight: 700; font-size: 9px; font-family: 'DejaVu Sans'; text-anchor: middle; fill: #21312c" x="64.8" y="318.310594" transform="rotate(-0 64.8 318.310594)">Explore</text>
   </g>
   <g id="text_19">
    <text style="font-size: 7.7px; font-family: 'DejaVu Sans'; fill: #21312c" transform="translate(25.507742 336.553219)">Register hypotheses</text>
    <text style="font-size: 7.7px; font-family: 'DejaVu Sans'; fill: #21312c" transform="translate(25.513758 346.178219)">Record expectations</text>
   </g>
   <g id="text_20">
    <text style="font-weight: 700; font-size: 9px; font-family: 'DejaVu Sans'; text-anchor: middle; fill: #21312c" x="199.8" y="318.310594" transform="rotate(-0 199.8 318.310594)">Analyze</text>
   </g>
   <g id="text_21">
    <text style="font-size: 7.7px; font-family: 'DejaVu Sans'; fill: #21312c" transform="translate(162.213172 336.553219)">Select comparisons</text>
    <text style="font-size: 7.7px; font-family: 'DejaVu Sans'; fill: #21312c" transform="translate(164.555055 346.924156)">Receive estimates</text>
   </g>
   <g id="text_22">
    <text style="font-weight: 700; font-size: 9px; font-family: 'DejaVu Sans'; text-anchor: middle; fill: #21312c" x="334.8" y="318.310594" transform="rotate(-0 334.8 318.310594)">Appraise</text>
   </g>
   <g id="text_23">
    <text style="font-size: 7.7px; font-family: 'DejaVu Sans'; fill: #21312c" transform="translate(307.654492 337.299156)">Assess results</text>
    <text style="font-size: 7.7px; font-family: 'DejaVu Sans'; fill: #21312c" transform="translate(298.981766 346.178219)">Request validation</text>
   </g>
   <g id="text_24">
    <text style="font-weight: 700; font-size: 9px; font-family: 'DejaVu Sans'; text-anchor: middle; fill: #21312c" x="472.5" y="318.310594" transform="rotate(-0 472.5 318.310594)">Synthesize</text>
   </g>
   <g id="text_25">
    <text style="font-size: 7.5px; font-family: 'DejaVu Sans'; fill: #21312c" transform="translate(432.676172 337.099594)">Assess new evidence</text>
    <text style="font-size: 7.5px; font-family: 'DejaVu Sans'; fill: #21312c" transform="translate(427.216992 345.748031)">Update accepted claims</text>
   </g>
   <g id="text_26">
    <text style="font-weight: 700; font-size: 9px; font-family: 'DejaVu Sans'; text-anchor: middle; fill: #21312c" x="405" y="385.270594" transform="rotate(-0 405 385.270594)">Independent validation</text>
   </g>
   <g id="text_27">
    <text style="font-size: 7.7px; font-family: 'DejaVu Sans'; text-anchor: middle; fill: #21312c" x="405" y="403.513219" transform="rotate(-0 405 403.513219)">Requested or scheduled evidence</text>
   </g>
   <g id="text_28">
    <text style="font-weight: 700; font-size: 8.4px; font-family: 'DejaVu Sans'; text-anchor: middle; fill: #21312c" x="135" y="374.976" transform="rotate(-0 135 374.976)">Repeat through the full budget</text>
   </g>
   <g id="text_29">
    <text style="font-size: 8.1px; font-family: 'DejaVu Sans'; text-anchor: middle; fill: #21312c" x="135" y="391.392" transform="rotate(-0 135 391.392)">25 clinical or 10 cell-line iterations</text>
   </g>
   <g id="text_30">
    <text style="font-size: 8.1px; font-family: 'DejaVu Sans'; text-anchor: middle" x="270" y="418.176" transform="rotate(-0 270 418.176)">Final confirmation: recall R · precision P · F1*  |  Coverage E · responsiveness B</text>
   </g>
  </g>
 </g>
 <defs>
  <clipPath id="p50240bdaa3">
   <rect x="0" y="0" width="540" height="432"/>
  </clipPath>
 </defs>
</svg>
